{"title":"Aakhri Ghanti - DvDRipXviD","uid":7078857,"size":823130034,"categoryP":"video","categoryS":"tv_shows","magnet":"?xt=urn:btih:c350d774cba82491cd699d401fdd3ed09b9e9c7b&amp;dn=Aakhri+Ghanti+-+DvDRipXviD&amp;tr=udp%3A%2F%2Ftracker.openbittorrent.com%3A80&amp;tr=udp%3A%2F%2Fopen.demonii.com%3A1337&amp;tr=udp%3A%2F%2Ftracker.coppersurfer.tk%3A6969&amp;tr=udp%3A%2F%2Fexodus.desync.com%3A6969","seeders":0,"leechers":1,"uploader":"arsenal_rocks","files":2,"time":1330952522,"description":"[CODE]\nGeneral\nComplete name                            : Aakhri Ghanti - DvDRipXviD.avi\nFormat                                   : AVI\nFormat/Info                              : Audio Video Interleave\nFile size                                : 785 MiB\nDuration                                 : 1h 23mn\nOverall bit rate                         : 1 317 Kbps\nWriting application                      : Lavf52.93.0\n\nVideo\nID                                       : 0\nFormat                                   : MPEG-4 Visual\nFormat profile                           : Simple@L1\nFormat settings, BVOP                    : No\nFormat settings, QPel                    : No\nFormat settings, GMC                     : No warppoints\nFormat settings, Matrix                  : Default (H.263)\nCodec ID                                 : FMP4\nDuration                                 : 1h 23mn\nBit rate                                 : 1 175 Kbps\nWidth                                    : 640 pixels\nHeight                                   : 336 pixels\nDisplay aspect ratio                     : 1.905\nFrame rate                               : 29.970 fps\nColor space                              : YUV\nChroma subsampling                       : 4:2:0\nBit depth                                : 8 bits\nScan type                                : Progressive\nCompression mode                         : Lossy\nBits/(Pixel*Frame)                       : 0.182\nStream size                              : 700 MiB (89%)\nWriting library                          : Lavc52.108.0\n\nAudio\nID                                       : 1\nFormat                                   : MPEG Audio\nFormat version                           : Version 1\nFormat profile                           : Layer 2\nCodec ID                                 : 50\nDuration                                 : 1h 23mn\nBit rate mode                            : Constant\nBit rate                                 : 128 Kbps\nChannel(s)                               : 2 channels\nSampling rate                            : 48.0 KHz\nCompression mode                         : Lossy\nStream size                              : 76.3 MiB (10%)\nAlignment                                : Aligned on interleaves\nInterleave, duration                     : 24 ms (0.72 video frame)\nInterleave, preload duration             : 48 ms\nTitle                                    : AC3 2.1 Audio  \n[/CODE]\n &lt;a href=&quot;\nhttp://img856.imageshack.us/img856/7372/aakhrighanti.jpg&quot; rel=&quot;nofollow&quot; target=&quot;_NEW&quot;&gt;\nhttp://img856.imageshack.us/img856/7372/aakhrighanti.jpg&lt;/a&gt;","torrent":{"xt":"urn:btih:c350d774cba82491cd699d401fdd3ed09b9e9c7b","amp;dn":"Aakhri+Ghanti+-+DvDRipXviD","amp;tr":["udp%3A%2F%2Ftracker.openbittorrent.com%3A80","udp%3A%2F%2Fopen.demonii.com%3A1337","udp%3A%2F%2Ftracker.coppersurfer.tk%3A6969","udp%3A%2F%2Fexodus.desync.com%3A6969"],"infoHash":"c350d774cba82491cd699d401fdd3ed09b9e9c7b","infoHashBuffer":{"type":"Buffer","data":[195,80,215,116,203,168,36,145,205,105,157,64,31,221,62,208,155,158,156,123]},"announce":[],"urlList":[]}}